<?xml version="1.0" encoding="UTF-8" standalone="no"?>
<svg
   xmlns:dc="http://purl.org/dc/elements/1.1/"
   xmlns:cc="http://creativecommons.org/ns#"
   xmlns:rdf="http://www.w3.org/1999/02/22-rdf-syntax-ns#"
   xmlns:svg="http://www.w3.org/2000/svg"
   xmlns="http://www.w3.org/2000/svg"
   xmlns:sodipodi="http://sodipodi.sourceforge.net/DTD/sodipodi-0.dtd"
   xmlns:inkscape="http://www.inkscape.org/namespaces/inkscape"
   width="1538.5"
   height="1870.5"
   id="svg2"
   version="1.1"
   inkscape:version="0.91 r13725"
   sodipodi:docname="shield_java.svg"
   inkscape:export-filename="C:\UwAmp\www\portfolio-prep2\img\logos\shield_java.png"
   inkscape:export-xdpi="9.6018152"
   inkscape:export-ydpi="9.6018152">
  <metadata
     id="metadata13">
    <rdf:RDF>
      <cc:Work
         rdf:about="">
        <dc:format>image/svg+xml</dc:format>
        <dc:type
           rdf:resource="http://purl.org/dc/dcmitype/StillImage" />
        <dc:title />
      </cc:Work>
    </rdf:RDF>
  </metadata>
  <defs
     id="defs11" />
  <sodipodi:namedview
     pagecolor="#ffffff"
     bordercolor="#666666"
     borderopacity="1"
     objecttolerance="10"
     gridtolerance="10"
     guidetolerance="10"
     inkscape:pageopacity="0"
     inkscape:pageshadow="2"
     inkscape:window-width="1366"
     inkscape:window-height="705"
     id="namedview9"
     showgrid="false"
     inkscape:zoom="0.25233895"
     inkscape:cx="-690.97966"
     inkscape:cy="1048.6714"
     inkscape:window-x="-8"
     inkscape:window-y="-8"
     inkscape:window-maximized="1"
     inkscape:current-layer="svg2" />
  <g
     id="g4"
     style="fill:#f44336;fill-opacity:1;stroke:#d32f2f;stroke-opacity:1;stroke-width:50;stroke-miterlimit:4;stroke-dasharray:none">
    <title
       id="title6">Layer 1</title>
    <path
       id="path2"
       d="m745.5,1.5l6.5,0l28,14.5q28,14.5 37,19q9,4.5 61.25,29.25q52.25,24.75 54,25q1.75,0.25 27.75,11.75q26,11.5 40,17q14,5.5 40.5,15q26.5,9.5 33.5,12q7,2.5 17.5,6q10.5,3.5 27,8.5q16.5,5 42,12q25.5,7 49.5,12.5q24,5.5 31,7q7,1.5 44.5,8.5q37.5,7 47,8.5q9.5,1.5 46.5,7.5q37,6 37.5,6q0.5,0 36,7q35.5,7 35.75,7.25l0.25,0.25l-1.5,74.5q-1.5,74.5 -7.5,192.5q-6,118 -9.5,165q-3.5,47 -8,80.5q-4.5,33.5 -10.5,63.5q-6,30 -13,60.5q-7,30.5 -12.5,53.5q-5.5,23 -13,49.5q-7.5,26.5 -9,32q-1.5,5.5 -4.5,14q-3,8.5 -7,21q-4,12.5 -12.5,36q-8.5,23.5 -14,37.5q-5.5,14 -13.5,33.5q-8,19.5 -20.5,47q-12.5,27.5 -15,32q-2.5,4.5 -18.25,32.75q-15.75,28.25 -19,33.5q-3.25,5.25 -15.5,26.5q-12.25,21.25 -16,27q-3.75,5.75 -11.5,18q-7.75,12.25 -12.5,19q-4.75,6.75 -11,16q-6.25,9.25 -12,17q-5.75,7.75 -9,13q-3.25,5.25 -9.5,13.5q-6.25,8.25 -12,16.5q-5.75,8.25 -12.5,17q-6.75,8.75 -11.5,15q-4.75,6.25 -20.25,23.75q-15.5,17.5 -36.5,40q-21,22.5 -37,38.5q-16,16 -21.25,20.25q-5.25,4.25 -24.5,21.5q-19.25,17.25 -23.5,21q-4.25,3.75 -21,18.5q-16.75,14.75 -22,19q-5.25,4.25 -12,10q-6.75,5.75 -18.75,15.75q-12,10 -18.25,14.75q-6.25,4.75 -12,8.5q-5.75,3.75 -21,13q-15.25,9.25 -20,12.5q-4.75,3.25 -10.75,6.75q-6,3.5 -12.5,8q-6.5,4.5 -9.5,6.5q-3,2 -13,7q-10,5 -24,11.5q-14,6.5 -19.5,8.5l-5.5,2l-6,-1.5q-6,-1.5 -13,-5q-7,-3.5 -23.5,-12q-16.5,-8.5 -19,-10.5q-2.5,-2 -12.75,-8.75q-10.25,-6.75 -15.5,-10q-5.25,-3.25 -20.5,-12.5q-15.25,-9.25 -21,-13q-5.75,-3.75 -12,-8.5q-6.25,-4.75 -14.25,-11.25q-8,-6.5 -21.25,-17.75q-13.25,-11.25 -23,-19.5q-9.75,-8.25 -28.5,-25q-18.75,-16.75 -24,-21q-5.25,-4.25 -23,-20q-17.75,-15.75 -19.75,-17.75q-2,-2 -17.75,-17.75q-15.75,-15.75 -22,-22.5q-6.25,-6.75 -27.5,-30q-21.25,-23.25 -25.5,-28.5q-4.25,-5.25 -12.5,-15.5q-8.25,-10.25 -13,-16.5q-4.75,-6.25 -9.5,-13q-4.75,-6.75 -10,-14q-5.25,-7.25 -9.5,-13q-4.25,-5.75 -7.25,-10.25q-3,-4.5 -8.25,-11.75q-5.25,-7.25 -9,-13q-3.75,-5.75 -10,-15q-6.25,-9.25 -9.5,-14.5q-3.25,-5.25 -10.5,-16.5q-7.25,-11.25 -9.5,-15.5q-2.25,-4.25 -12.5,-21.5q-10.25,-17.25 -13.5,-22.5q-3.25,-5.25 -16.25,-28.75q-13,-23.5 -19.5,-35.5q-6.5,-12 -11.5,-22.5q-5,-10.5 -14,-31.5q-9,-21 -9,-21.5q0,-0.5 -9,-23q-9,-22.5 -14,-35.5q-5,-13 -14,-39.5q-9,-26.5 -18,-56.5q-9,-30 -20,-73q-11,-43 -15.5,-64q-4.5,-21 -12.5,-61q-8,-40 -9.5,-52.5q-1.5,-12.5 -6.5,-76.5q-5,-64 -6.5,-96.5q-1.5,-32.5 -3.5,-69q-2,-36.5 -5.5,-119.5q-3.5,-83 -3.5,-117.5l0,-34.5l3.25,-1.75q3.25,-1.75 17.75,-4.25q14.5,-2.5 40,-6.5q25.5,-4 77.5,-13q52,-9 74.5,-13q22.5,-4 59.5,-12.5q37,-8.5 64,-16q27,-7.5 46.5,-14q19.5,-6.5 30.5,-10q11,-3.5 21,-7q10,-3.5 40,-15q30,-11.5 56.25,-23.25q26.25,-11.75 28,-12q1.75,-0.25 25.25,-11.25q23.5,-11 42.5,-20q19,-9 37.5,-18q18.5,-9 46,-23.5l27.5,-14.5l6.5,0z"
       stroke-width="2px"
       stroke="#000000"
       fill-rule="evenodd"
       fill="#000000"
       style="fill:#f44336;fill-opacity:1;stroke:#d32f2f;stroke-opacity:1;stroke-width:50;stroke-miterlimit:4;stroke-dasharray:none" />
  </g>
  <text
     xml:space="preserve"
     style="font-style:normal;font-variant:normal;font-weight:normal;font-stretch:normal;font-size:597.08911133px;line-height:125%;font-family:'Britannic Bold';-inkscape-font-specification:'Britannic Bold, ';text-align:center;letter-spacing:0px;word-spacing:0px;text-anchor:middle;fill:#ffffff;fill-opacity:1;stroke:none;stroke-width:1px;stroke-linecap:butt;stroke-linejoin:miter;stroke-opacity:1"
     x="733.49469"
     y="1002.7129"
     id="text4141"
     sodipodi:linespacing="125%"><tspan
       sodipodi:role="line"
       x="733.49469"
       y="1002.7129"
       id="tspan4145">Java</tspan></text>
</svg>
