<?xml version="1.0" encoding="UTF-8" standalone="no"?>
<!-- Creator: CorelDRAW X6 -->

<svg
   xmlns:dc="http://purl.org/dc/elements/1.1/"
   xmlns:cc="http://creativecommons.org/ns#"
   xmlns:rdf="http://www.w3.org/1999/02/22-rdf-syntax-ns#"
   xmlns:svg="http://www.w3.org/2000/svg"
   xmlns="http://www.w3.org/2000/svg"
   xmlns:sodipodi="http://sodipodi.sourceforge.net/DTD/sodipodi-0.dtd"
   xmlns:inkscape="http://www.inkscape.org/namespaces/inkscape"
   xml:space="preserve"
   width="210mm"
   height="297mm"
   version="1.1"
   style="shape-rendering:geometricPrecision; text-rendering:geometricPrecision; image-rendering:optimizeQuality; fill-rule:evenodd; clip-rule:evenodd"
   viewBox="0 0 21000 29700"
   id="svg2"
   inkscape:version="0.91 r13725"
   sodipodi:docname="envelop.svg"
   inkscape:export-filename="C:\UwAmp\www\portfolio-prep2\img\backgrounds\envelop.png"
   inkscape:export-xdpi="300"
   inkscape:export-ydpi="300"><metadata
     id="metadata24"><rdf:RDF><cc:Work
         rdf:about=""><dc:format>image/svg+xml</dc:format><dc:type
           rdf:resource="http://purl.org/dc/dcmitype/StillImage" /></cc:Work></rdf:RDF></metadata><sodipodi:namedview
     pagecolor="#ffffff"
     bordercolor="#666666"
     borderopacity="1"
     objecttolerance="10"
     gridtolerance="10"
     guidetolerance="10"
     inkscape:pageopacity="0"
     inkscape:pageshadow="2"
     inkscape:window-width="1366"
     inkscape:window-height="705"
     id="namedview22"
     showgrid="false"
     inkscape:zoom="0.63429568"
     inkscape:cx="43.92321"
     inkscape:cy="586.48204"
     inkscape:window-x="-8"
     inkscape:window-y="-8"
     inkscape:window-maximized="1"
     inkscape:current-layer="Слой_x0020_1" /><defs
     id="defs4"><style
       type="text/css"
       id="style6"><![CDATA[
    .fil5 {fill:black}
    .fil4 {fill:#0F0F0F}
    .fil1 {fill:#858585}
    .fil0 {fill:#999999}
    .fil3 {fill:#CCCCCC}
    .fil2 {fill:white}
   ]]></style></defs><g
     id="Слой_x0020_1"><metadata
       id="CorelCorpID_0Corel-Layer" /><rect
       style="fill:#cfd8dc;fill-opacity:1;stroke:none;stroke-width:160.8666687;stroke-miterlimit:4;stroke-dasharray:none;stroke-opacity:1"
       id="rect4152"
       width="14425.266"
       height="8038.5068"
       x="2637.4807"
       y="8870.0928" /><path
       class="fil2"
       d="m 14595.649,9508.0932 54.687,0 c 0,29.8011 24.271,54.0722 54.072,54.0722 29.801,0 54.072,-24.2711 54.072,-54.0722 l 42.09,0 c 0,29.8011 24.271,54.0722 54.073,54.0722 29.801,0 54.072,-24.2711 54.072,-54.0722 l 42.09,0 c 0,29.8011 24.271,54.0722 54.072,54.0722 29.802,0 54.073,-24.2711 54.073,-54.0722 l 42.09,0 c 0,29.8011 24.271,54.0722 54.072,54.0722 29.801,0 54.072,-24.2711 54.072,-54.0722 l 42.091,0 c 0,29.8011 24.271,54.0722 54.072,54.0722 29.801,0 54.072,-24.2711 54.072,-54.0722 l 42.091,0 c 0,29.8011 24.271,54.0722 54.072,54.0722 29.801,0 54.072,-24.2711 54.072,-54.0722 l 42.09,0 c 0,29.8011 24.271,54.0722 54.072,54.0722 29.802,0 54.073,-24.2711 54.073,-54.0722 l 42.09,0 c 0,29.8011 24.271,54.0722 54.072,54.0722 29.802,0 54.073,-24.2711 54.073,-54.0722 l 42.09,0 c 0,29.8011 24.271,54.0722 54.072,54.0722 29.801,0 54.072,-24.2711 54.072,-54.0722 l 42.091,0 c 0,29.8011 24.271,54.0722 54.072,54.0722 29.801,0 54.072,-24.2711 54.072,-54.0722 l 42.091,0 c 0,29.8011 24.27,54.0722 54.072,54.0722 29.8,0 54.071,-24.2711 54.071,-54.0722 l 54.687,0 0,45.1626 c -29.802,0 -54.071,24.271 -54.071,54.0723 0,29.8011 24.269,54.0721 54.071,54.0721 l 0,42.0904 c -29.802,0 -54.071,24.271 -54.071,54.0722 0,29.8012 24.269,54.0722 54.071,54.0722 l 0,42.0904 c -29.802,0 -54.071,24.271 -54.071,54.0722 0,29.8012 24.269,54.0723 54.071,54.0723 l 0,42.0901 c -29.802,0 -54.071,24.271 -54.071,54.072 0,29.801 24.269,54.073 54.071,54.073 l 0,37.482 c -29.802,0 -54.071,24.271 -54.071,54.072 0,29.801 24.269,54.072 54.071,54.072 l 0,42.091 c -29.802,0 -54.071,24.271 -54.071,54.072 0,29.801 24.269,54.072 54.071,54.072 l 0,42.09 c -29.802,0 -54.071,24.271 -54.071,54.072 0,29.802 24.269,54.073 54.071,54.073 l 0,42.09 c -29.802,0 -54.071,24.271 -54.071,54.072 0,29.801 24.269,54.072 54.071,54.072 l 0,42.091 c -29.802,0 -54.071,24.271 -54.071,54.072 0,29.801 24.269,54.072 54.071,54.072 l 0,42.091 c -29.802,0 -54.071,24.271 -54.071,54.072 0,29.801 24.269,54.072 54.071,54.072 l 0,42.09 c -29.802,0 -54.071,24.271 -54.071,54.073 0,29.801 24.269,54.072 54.071,54.072 l 0,42.09 c -29.802,0 -54.071,24.271 -54.071,54.072 0,29.801 24.269,54.073 54.071,54.073 l 0,42.091 c -29.802,0 -54.071,24.27 -54.071,54.071 0,29.801 24.269,54.072 54.071,54.072 l 0,42.091 c -29.802,0 -54.071,24.27 -54.071,54.071 0,29.802 24.269,54.073 54.071,54.073 l 0,42.09 c -29.802,0 -54.071,24.271 -54.071,54.073 0,29.801 24.269,54.071 54.071,54.071 l 0,40.861 -54.687,0 c 0,-29.8 -24.271,-54.071 -54.071,-54.071 -29.802,0 -54.072,24.271 -54.072,54.071 l -42.091,0 c 0,-29.8 -24.271,-54.071 -54.072,-54.071 -29.801,0 -54.072,24.271 -54.072,54.071 l -42.091,0 c 0,-29.8 -24.271,-54.071 -54.072,-54.071 -29.801,0 -54.072,24.271 -54.072,54.071 l -42.09,0 c 0,-29.8 -24.271,-54.071 -54.073,-54.071 -29.801,0 -54.072,24.271 -54.072,54.071 l -42.09,0 c 0,-29.8 -24.271,-54.071 -54.073,-54.071 -29.801,0 -54.072,24.271 -54.072,54.071 l -42.09,0 c 0,-29.8 -24.271,-54.071 -54.072,-54.071 -29.801,0 -54.072,24.271 -54.072,54.071 l -42.091,0 c 0,-29.8 -24.271,-54.071 -54.072,-54.071 -29.801,0 -54.072,24.271 -54.072,54.071 l -42.091,0 c 0,-29.8 -24.271,-54.071 -54.072,-54.071 -29.801,0 -54.072,24.271 -54.072,54.071 l -42.09,0 c 0,-29.8 -24.271,-54.071 -54.073,-54.071 -29.801,0 -54.072,24.271 -54.072,54.071 l -42.09,0 c 0,-29.8 -24.271,-54.071 -54.072,-54.071 -29.802,0 -54.073,24.271 -54.073,54.071 l -42.09,0 c 0,-29.8 -24.271,-54.071 -54.072,-54.071 -29.801,0 -54.072,24.271 -54.072,54.071 l -54.687,0 0,-51.306 c 29.801,0 54.072,-24.272 54.072,-54.072 0,-29.801 -24.271,-54.072 -54.072,-54.072 l 0,-42.09 c 29.801,0 54.072,-24.272 54.072,-54.073 0,-29.801 -24.271,-54.073 -54.072,-54.073 l 0,-42.09 c 29.801,0 54.072,-24.271 54.072,-54.071 0,-29.802 -24.271,-54.072 -54.072,-54.072 l 0,-42.091 c 29.801,0 54.072,-24.271 54.072,-54.073 0,-29.8 -24.271,-54.072 -54.072,-54.072 l 0,-42.09 c 29.801,0 54.072,-24.271 54.072,-54.072 0,-29.801 -24.271,-54.072 -54.072,-54.072 l 0,-42.091 c 29.801,0 54.072,-24.271 54.072,-54.072 0,-29.801 -24.271,-54.072 -54.072,-54.072 l 0,-42.091 c 29.801,0 54.072,-24.271 54.072,-54.072 0,-29.801 -24.271,-54.072 -54.072,-54.072 l 0,-42.09 c 29.801,0 54.072,-24.271 54.072,-54.072 0,-29.802 -24.271,-54.073 -54.072,-54.073 l 0,-42.09 c 29.801,0 54.072,-24.271 54.072,-54.072 0,-29.801 -24.271,-54.073 -54.072,-54.073 l 0,-42.09 c 29.801,0 54.072,-24.271 54.072,-54.072 0,-29.801 -24.271,-54.072 -54.072,-54.072 l 0,-42.091 c 29.801,0 54.072,-24.271 54.072,-54.072 0,-29.801 -24.271,-54.072 -54.072,-54.072 l 0,-37.482 c 29.801,0 54.072,-24.271 54.072,-54.072 0,-29.802 -24.271,-54.0726 -54.072,-54.0726 l 0,-42.0903 c 29.801,0 54.072,-24.2711 54.072,-54.0723 0,-29.8011 -24.271,-54.0722 -54.072,-54.0722 l 0,-42.0903 c 29.801,0 54.072,-24.271 54.072,-54.0723 0,-29.8011 -24.271,-54.0722 -54.072,-54.0722 l 0,-42.0903 c 29.801,0 54.072,-24.271 54.072,-54.0722 0,-29.8013 -24.271,-54.0723 -54.072,-54.0723 l 0,-34.7168 z"
       id="path14"
       inkscape:connector-curvature="0"
       style="fill:#ffffff" /><path
       class="fil3"
       d="m 16312.442,9508.0932 0,45.1626 c -29.802,0 -54.073,24.271 -54.073,54.0723 0,29.8011 24.271,54.0721 54.073,54.0721 l 0,42.0904 c -29.802,0 -54.073,24.271 -54.073,54.0722 0,29.8012 24.271,54.0722 54.073,54.0722 l 0,42.0904 c -29.802,0 -54.073,24.271 -54.073,54.0722 0,29.8012 24.271,54.0723 54.073,54.0723 l 0,42.0901 c -29.802,0 -54.073,24.271 -54.073,54.072 0,29.801 24.271,54.073 54.073,54.073 l 0,37.482 c -29.802,0 -54.073,24.271 -54.073,54.072 0,29.801 24.271,54.072 54.073,54.072 l 0,42.091 c -29.802,0 -54.073,24.271 -54.073,54.072 0,29.801 24.271,54.072 54.073,54.072 l 0,42.09 c -29.802,0 -54.073,24.271 -54.073,54.072 0,29.802 24.271,54.073 54.073,54.073 l 0,42.09 c -29.802,0 -54.073,24.271 -54.073,54.072 0,29.801 24.271,54.072 54.073,54.072 l 0,42.091 c -29.802,0 -54.073,24.271 -54.073,54.072 0,29.801 24.271,54.072 54.073,54.072 l 0,42.091 c -29.802,0 -54.073,24.271 -54.073,54.072 0,29.801 24.271,54.072 54.073,54.072 l 0,42.09 c -29.802,0 -54.073,24.271 -54.073,54.073 0,29.801 24.271,54.072 54.073,54.072 l 0,42.09 c -29.802,0 -54.073,24.271 -54.073,54.072 0,29.801 24.271,54.073 54.073,54.073 l 0,42.091 c -29.802,0 -54.073,24.27 -54.073,54.071 0,29.801 24.271,54.072 54.073,54.072 l 0,42.091 c -29.802,0 -54.073,24.27 -54.073,54.071 0,29.802 24.271,54.073 54.073,54.073 l 0,42.09 c -29.802,0 -54.073,24.271 -54.073,54.073 0,29.801 24.271,54.071 54.073,54.071 l 0,40.861 -54.687,0 c 0,-29.8 -24.27,-54.071 -54.072,-54.071 -29.801,0 -54.071,24.271 -54.071,54.071 l -42.091,0 c 0,-29.8 -24.271,-54.071 -54.073,-54.071 -29.8,0 -54.072,24.271 -54.072,54.071 l -42.09,0 c 0,-29.8 -24.271,-54.071 -54.072,-54.071 -29.801,0 -54.072,24.271 -54.072,54.071 l -42.091,0 c 0,-29.8 -24.271,-54.071 -54.072,-54.071 -29.801,0 -54.072,24.271 -54.072,54.071 l -42.09,0 c 0,-29.8 -24.272,-54.071 -54.073,-54.071 -29.801,0 -54.072,24.271 -54.072,54.071 l -42.09,0 c 0,-29.8 -24.271,-54.071 -54.073,-54.071 -29.801,0 -54.072,24.271 -54.072,54.071 l -42.09,0 c 0,-29.8 -24.271,-54.071 -54.072,-54.071 -29.801,0 -54.073,24.271 -54.073,54.071 l -42.09,0 c 0,-29.8 -24.271,-54.071 -54.072,-54.071 -29.801,0 -54.072,24.271 -54.072,54.071 l -42.091,0 c 0,-29.8 -24.271,-54.071 -54.072,-54.071 -29.801,0 -54.072,24.271 -54.072,54.071 l -42.09,0 c 0,-29.8 -24.272,-54.071 -54.073,-54.071 -29.801,0 -54.072,24.271 -54.072,54.071 l -42.09,0 c 0,-29.8 -24.271,-54.071 -54.072,-54.071 -29.802,0 -54.073,24.271 -54.073,54.071 l -54.686,0 1717.1,-2289.4663 z"
       id="path16"
       inkscape:connector-curvature="0"
       style="fill:#bdbdbd;fill-opacity:1" /><rect
       class="fil4"
       x="14752.949"
       y="9717.9297"
       width="1402.1914"
       height="1869.7932"
       id="rect18"
       style="fill:#ef5350;fill-opacity:1" /><polygon
       class="fil5"
       points="13429,8773 13429,14859 8865,14859 "
       id="polygon20"
       transform="matrix(0.30722859,0,0,0.30722859,12029.368,7022.6138)"
       style="fill:#e53935;fill-opacity:0.33333333" /></g></svg>