<?xml version="1.0" encoding="UTF-8" standalone="no"?>
<!-- Creator: CorelDRAW X6 -->

<svg
   xmlns:dc="http://purl.org/dc/elements/1.1/"
   xmlns:cc="http://creativecommons.org/ns#"
   xmlns:rdf="http://www.w3.org/1999/02/22-rdf-syntax-ns#"
   xmlns:svg="http://www.w3.org/2000/svg"
   xmlns="http://www.w3.org/2000/svg"
   xmlns:sodipodi="http://sodipodi.sourceforge.net/DTD/sodipodi-0.dtd"
   xmlns:inkscape="http://www.inkscape.org/namespaces/inkscape"
   xml:space="preserve"
   width="210mm"
   height="297mm"
   version="1.1"
   style="shape-rendering:geometricPrecision; text-rendering:geometricPrecision; image-rendering:optimizeQuality; fill-rule:evenodd; clip-rule:evenodd"
   viewBox="0 0 21000 29700"
   id="svg2"
   inkscape:version="0.91 r13725"
   sodipodi:docname="postcard.svg"
   inkscape:export-filename="C:\UwAmp\www\portfolio-prep2\img\backgrounds\postcard.png"
   inkscape:export-xdpi="94.731018"
   inkscape:export-ydpi="94.731018"><metadata
     id="metadata24"><rdf:RDF><cc:Work
         rdf:about=""><dc:format>image/svg+xml</dc:format><dc:type
           rdf:resource="http://purl.org/dc/dcmitype/StillImage" /><dc:title></dc:title></cc:Work></rdf:RDF></metadata><sodipodi:namedview
     pagecolor="#ffffff"
     bordercolor="#666666"
     borderopacity="1"
     objecttolerance="10"
     gridtolerance="10"
     guidetolerance="10"
     inkscape:pageopacity="0"
     inkscape:pageshadow="2"
     inkscape:window-width="1366"
     inkscape:window-height="705"
     id="namedview22"
     showgrid="false"
     inkscape:zoom="0.89702955"
     inkscape:cx="337.87492"
     inkscape:cy="532.91823"
     inkscape:window-x="-8"
     inkscape:window-y="-8"
     inkscape:window-maximized="1"
     inkscape:current-layer="Слой_x0020_1" /><defs
     id="defs4"><style
       type="text/css"
       id="style6"><![CDATA[
    .fil5 {fill:black}
    .fil4 {fill:#0F0F0F}
    .fil1 {fill:#858585}
    .fil0 {fill:#999999}
    .fil3 {fill:#CCCCCC}
    .fil2 {fill:white}
   ]]></style></defs><g
     id="Слой_x0020_1"><metadata
       id="CorelCorpID_0Corel-Layer" /><rect
       style="fill:#eceff1;fill-opacity:1;stroke:none;stroke-width:160.8666687;stroke-miterlimit:4;stroke-dasharray:none;stroke-opacity:1"
       id="rect4152"
       width="14425.266"
       height="8038.5068"
       x="2637.4807"
       y="8870.0928" /><path
       class="fil2"
       d="m 14625.757,9306.1721 0,45.5073 c 24.799,0 44.996,20.197 44.996,44.9956 0,24.7986 -20.197,44.9956 -44.996,44.9956 l 0,35.0251 c 24.799,0 44.996,20.1969 44.996,44.9964 0,24.7987 -20.197,44.9956 -44.996,44.9956 l 0,35.0248 c 24.799,0 44.996,20.1969 44.996,44.9956 0,24.7994 -20.197,44.9963 -44.996,44.9963 l 0,35.0249 c 24.799,0 44.996,20.197 44.996,44.996 0,24.798 -20.197,44.995 -44.996,44.995 l 0,35.026 c 24.799,0 44.996,20.197 44.996,44.995 0,24.799 -20.197,44.996 -44.996,44.996 l 0,35.025 c 24.799,0 44.996,20.197 44.996,44.9957 0,24.799 -20.197,44.995 -44.996,44.995 l 0,35.025 c 24.799,0 44.996,20.197 44.996,44.996 0,24.799 -20.197,44.996 -44.996,44.996 l 0,35.025 c 24.799,0 44.996,20.197 44.996,44.996 0,24.799 -20.197,44.996 -44.996,44.996 l 0,35.025 c 24.799,0 44.996,20.197 44.996,44.995 0,24.799 -20.197,44.996 -44.996,44.996 l 0,35.026 c 24.799,0 44.996,20.197 44.996,44.995 0,24.799 -20.197,44.996 -44.996,44.996 l 0,35.025 c 24.799,0 44.996,20.196 44.996,44.996 0,24.798 -20.197,44.995 -44.996,44.995 l 0,45.507 37.581,0 c 0,-24.799 20.197,-44.995 44.996,-44.995 24.799,0 44.996,20.196 44.996,44.995 l 35.025,0 c 0,-24.799 20.197,-44.995 44.996,-44.995 24.798,0 44.995,20.196 44.995,44.995 l 35.026,0 c 0,-24.799 20.197,-44.995 44.995,-44.995 24.799,0 44.996,20.196 44.996,44.995 l 35.025,0 c 0,-24.799 20.197,-44.995 44.995,-44.995 24.799,0 44.997,20.196 44.997,44.995 l 31.19,0 c 0,-24.799 20.197,-44.995 44.995,-44.995 24.799,0 44.996,20.196 44.996,44.995 l 35.026,0 c 0,-24.799 20.197,-44.995 44.995,-44.995 24.799,0 44.996,20.196 44.996,44.995 l 35.025,0 c 0,-24.799 20.197,-44.995 44.995,-44.995 24.8,0 44.997,20.196 44.997,44.995 l 35.024,0 c 0,-24.799 20.197,-44.995 44.996,-44.995 24.799,0 44.996,20.196 44.996,44.995 l 35.025,0 c 0,-24.799 20.197,-44.995 44.996,-44.995 24.798,0 44.995,20.196 44.995,44.995 l 35.026,0 c 0,-24.799 20.197,-44.995 44.996,-44.995 24.798,0 44.995,20.196 44.995,44.995 l 35.025,0 c 0,-24.799 20.197,-44.995 44.996,-44.995 24.799,0 44.996,20.196 44.996,44.995 l 35.025,0 c 0,-24.799 20.197,-44.995 44.995,-44.995 24.799,0 44.997,20.196 44.997,44.995 l 35.025,0 c 0,-24.799 20.196,-44.995 44.995,-44.995 24.799,0 44.996,20.196 44.996,44.995 l 35.025,0 c 0,-24.799 20.196,-44.995 44.995,-44.995 24.799,0 44.996,20.196 44.996,44.995 l 35.025,0 c 0,-24.799 20.197,-44.995 44.997,-44.995 24.798,0 44.994,20.196 44.994,44.995 l 34.002,0 0,-45.507 c -24.797,0 -44.994,-20.197 -44.994,-44.995 0,-24.8 20.197,-44.996 44.994,-44.996 l 0,-35.025 c -24.797,0 -44.994,-20.197 -44.994,-44.996 0,-24.798 20.197,-44.995 44.994,-44.995 l 0,-35.026 c -24.797,0 -44.994,-20.197 -44.994,-44.996 0,-24.798 20.197,-44.995 44.994,-44.995 l 0,-35.025 c -24.797,0 -44.994,-20.197 -44.994,-44.996 0,-24.799 20.197,-44.996 44.994,-44.996 l 0,-35.025 c -24.797,0 -44.994,-20.197 -44.994,-44.996 0,-24.799 20.197,-44.996 44.994,-44.996 l 0,-35.025 c -24.797,0 -44.994,-20.196 -44.994,-44.995 0,-24.7987 20.197,-44.9957 44.994,-44.9957 l 0,-35.025 c -24.797,0 -44.994,-20.197 -44.994,-44.996 0,-24.798 20.197,-44.995 44.994,-44.995 l 0,-35.026 c -24.797,0 -44.994,-20.197 -44.994,-44.995 0,-24.799 20.197,-44.996 44.994,-44.996 l 0,-35.0249 c -24.797,0 -44.994,-20.1969 -44.994,-44.9963 0,-24.7987 20.197,-44.9956 44.994,-44.9956 l 0,-35.0248 c -24.797,0 -44.994,-20.1969 -44.994,-44.9956 0,-24.7995 20.197,-44.9964 44.994,-44.9964 l 0,-35.0251 c -24.797,0 -44.994,-20.197 -44.994,-44.9956 0,-24.7986 20.197,-44.9956 44.994,-44.9956 l 0,-45.5073 -42.693,0 c 0,24.7987 -20.198,44.9956 -44.996,44.9956 -24.799,0 -44.996,-20.1969 -44.996,-44.9956 l -35.024,0 c 0,24.7987 -20.198,44.9956 -44.997,44.9956 -24.798,0 -44.996,-20.1969 -44.996,-44.9956 l -35.025,0 c 0,24.7987 -20.197,44.9956 -44.995,44.9956 -24.799,0 -44.995,-20.1969 -44.995,-44.9956 l -35.026,0 c 0,24.7987 -20.197,44.9956 -44.996,44.9956 -24.798,0 -44.996,-20.1969 -44.996,-44.9956 l -35.025,0 c 0,24.7987 -20.197,44.9956 -44.995,44.9956 -24.799,0 -44.996,-20.1969 -44.996,-44.9956 l -35.025,0 c 0,24.7987 -20.197,44.9956 -44.996,44.9956 -24.799,0 -44.996,-20.1969 -44.996,-44.9956 l -35.025,0 c 0,24.7987 -20.197,44.9956 -44.996,44.9956 -24.798,0 -44.995,-20.1969 -44.995,-44.9956 l -35.025,0 c 0,24.7987 -20.197,44.9956 -44.996,44.9956 -24.799,0 -44.996,-20.1969 -44.996,-44.9956 l -35.025,0 c 0,24.7987 -20.197,44.9956 -44.996,44.9956 -24.798,0 -44.996,-20.1969 -44.996,-44.9956 l -35.025,0 c 0,24.7987 -20.197,44.9956 -44.995,44.9956 -24.799,0 -44.996,-20.1969 -44.996,-44.9956 l -35.026,0 c 0,24.7987 -20.196,44.9956 -44.995,44.9956 -24.799,0 -44.996,-20.1969 -44.996,-44.9956 l -31.19,0 c 0,24.7987 -20.197,44.9956 -44.995,44.9956 -24.8,0 -44.996,-20.1969 -44.996,-44.9956 l -35.026,0 c 0,24.7987 -20.197,44.9956 -44.995,44.9956 -24.799,0 -44.996,-20.1969 -44.996,-44.9956 l -35.025,0 c 0,24.7987 -20.197,44.9956 -44.996,44.9956 -24.799,0 -44.996,-20.1969 -44.996,-44.9956 l -35.024,0 c 0,24.7987 -20.197,44.9956 -44.996,44.9956 -24.799,0 -44.996,-20.1969 -44.996,-44.9956 l -28.889,0 z"
       id="path14"
       inkscape:connector-curvature="0"
       style="fill:#ffffff" /><path
       class="fil3"
       d="m 14625.757,10734.787 37.581,0 c 0,-24.8 20.197,-44.997 44.996,-44.997 24.799,0 44.996,20.197 44.996,44.997 l 35.025,0 c 0,-24.8 20.197,-44.997 44.996,-44.997 24.798,0 44.995,20.197 44.995,44.997 l 35.026,0 c 0,-24.8 20.197,-44.997 44.995,-44.997 24.799,0 44.996,20.197 44.996,44.997 l 35.025,0 c 0,-24.8 20.197,-44.997 44.995,-44.997 24.799,0 44.997,20.197 44.997,44.997 l 31.19,0 c 0,-24.8 20.197,-44.997 44.995,-44.997 24.799,0 44.996,20.197 44.996,44.997 l 35.026,0 c 0,-24.8 20.197,-44.997 44.995,-44.997 24.799,0 44.996,20.197 44.996,44.997 l 35.025,0 c 0,-24.8 20.197,-44.997 44.995,-44.997 24.8,0 44.997,20.197 44.997,44.997 l 35.024,0 c 0,-24.8 20.197,-44.997 44.996,-44.997 24.799,0 44.996,20.197 44.996,44.997 l 35.025,0 c 0,-24.8 20.197,-44.997 44.996,-44.997 24.798,0 44.995,20.197 44.995,44.997 l 35.026,0 c 0,-24.8 20.197,-44.997 44.996,-44.997 24.798,0 44.995,20.197 44.995,44.997 l 35.025,0 c 0,-24.8 20.197,-44.997 44.996,-44.997 24.799,0 44.996,20.197 44.996,44.997 l 35.025,0 c 0,-24.8 20.197,-44.997 44.995,-44.997 24.799,0 44.997,20.197 44.997,44.997 l 35.025,0 c 0,-24.8 20.196,-44.997 44.995,-44.997 24.799,0 44.996,20.197 44.996,44.997 l 35.025,0 c 0,-24.8 20.196,-44.997 44.995,-44.997 24.799,0 44.996,20.197 44.996,44.997 l 35.025,0 c 0,-24.8 20.197,-44.997 44.997,-44.997 24.798,0 44.994,20.197 44.994,44.997 l 34.002,0 0,-45.508 c -24.797,0 -44.994,-20.196 -44.994,-44.995 0,-24.799 20.197,-44.995 44.994,-44.995 l 0,-35.026 c -24.797,0 -44.994,-20.197 -44.994,-44.996 0,-24.798 20.197,-44.996 44.994,-44.996 l 0,-35.024 c -24.797,0 -44.994,-20.197 -44.994,-44.996 0,-24.799 20.197,-44.995 44.994,-44.995 l 0,-35.026 c -24.797,0 -44.994,-20.197 -44.994,-44.996 0,-24.798 20.197,-44.995 44.994,-44.995 l 0,-35.025 c -24.797,0 -44.994,-20.198 -44.994,-44.996 0,-24.799 20.197,-44.996 44.994,-44.996 l 0,-35.025 c -24.797,0 -44.994,-20.197 -44.994,-44.996 0,-24.7987 20.197,-44.9957 44.994,-44.9957 l 0,-35.025 c -24.797,0 -44.994,-20.197 -44.994,-44.995 0,-24.799 20.197,-44.996 44.994,-44.996 l 0,-35.025 c -24.797,0 -44.994,-20.197 -44.994,-44.996 0,-24.798 20.197,-44.995 44.994,-44.995 l 0,-35.026 c -24.797,0 -44.994,-20.1969 -44.994,-44.9956 0,-24.7986 20.197,-44.9955 44.994,-44.9955 l 0,-35.0249 c -24.797,0 -44.994,-20.1977 -44.994,-44.9964 0,-24.7986 20.197,-44.9958 44.994,-44.9958 l 0,-35.0249 c -24.797,0 -44.994,-20.1969 -44.994,-44.9955 0,-24.7995 20.197,-44.9964 44.994,-44.9964 l 0,-45.5065 -1905.159,1428.8702 z"
       id="path16"
       inkscape:connector-curvature="0"
       style="fill:#bdbdbd;fill-opacity:1" /><rect
       class="fil4"
       x="9437.0684"
       y="14800.37"
       width="1166.8217"
       height="1555.9325"
       id="rect18"
       style="fill:#81c784;fill-opacity:1"
       transform="matrix(0,1,1,0,0,0)" /><polygon
       class="fil5"
       points="8865,14859 13429,8773 13429,14859 "
       id="polygon20"
       transform="matrix(0,0.25565765,0.25565765,0,12557.486,7170.6633)"
       style="fill:#4caf50;fill-opacity:0.33333333" /></g></svg>